<svg aria-hidden="true" style="position: absolute; width: 0; height: 0; overflow: hidden;" version="1.1" xmlns="http://www.w3.org/2000/svg" xmlns:xlink="http://www.w3.org/1999/xlink">
<defs>
<symbol id="icon-instagram" viewBox="0 0 32 32">
<path  d="M31.969 9.408c-0.075-1.7-0.35-2.869-0.744-3.882-0.406-1.075-1.032-2.038-1.851-2.838-0.8-0.813-1.769-1.444-2.832-1.844-1.019-0.394-2.182-0.669-3.882-0.744-1.713-0.081-2.257-0.1-6.601-0.1s-4.888 0.019-6.595 0.094c-1.7 0.075-2.869 0.35-3.882 0.744-1.075 0.406-2.038 1.031-2.838 1.85-0.813 0.8-1.444 1.769-1.844 2.832-0.394 1.019-0.669 2.182-0.744 3.882-0.081 1.713-0.1 2.257-0.1 6.601s0.019 4.888 0.094 6.595c0.075 1.7 0.35 2.869 0.744 3.882 0.406 1.075 1.038 2.038 1.85 2.838 0.8 0.813 1.769 1.444 2.832 1.844 1.019 0.394 2.182 0.669 3.882 0.744 1.706 0.075 2.25 0.094 6.595 0.094s4.888-0.019 6.595-0.094c1.7-0.075 2.869-0.35 3.882-0.744 2.151-0.832 3.851-2.532 4.682-4.682 0.394-1.019 0.669-2.182 0.744-3.882 0.075-1.707 0.094-2.251 0.094-6.595s-0.006-4.888-0.081-6.595zM29.087 22.473c-0.069 1.563-0.331 2.407-0.55 2.969-0.538 1.394-1.644 2.5-3.038 3.038-0.563 0.219-1.413 0.481-2.969 0.55-1.688 0.075-2.194 0.094-6.464 0.094s-4.782-0.019-6.464-0.094c-1.563-0.069-2.407-0.331-2.969-0.55-0.694-0.256-1.325-0.663-1.838-1.194-0.531-0.519-0.938-1.144-1.194-1.838-0.219-0.563-0.481-1.413-0.55-2.969-0.075-1.688-0.094-2.194-0.094-6.464s0.019-4.782 0.094-6.464c0.069-1.563 0.331-2.407 0.55-2.969 0.256-0.694 0.663-1.325 1.2-1.838 0.519-0.531 1.144-0.938 1.838-1.194 0.563-0.219 1.413-0.481 2.969-0.55 1.688-0.075 2.194-0.094 6.464-0.094 4.276 0 4.782 0.019 6.464 0.094 1.563 0.069 2.407 0.331 2.969 0.55 0.694 0.256 1.325 0.662 1.838 1.194 0.531 0.519 0.938 1.144 1.194 1.838 0.219 0.563 0.481 1.413 0.55 2.969 0.075 1.688 0.094 2.194 0.094 6.464s-0.019 4.77-0.094 6.458z"></path>
<path  d="M16.059 7.783c-4.538 0-8.22 3.682-8.22 8.22s3.682 8.22 8.22 8.22c4.539 0 8.22-3.682 8.22-8.22s-3.682-8.22-8.22-8.22zM16.059 21.335c-2.944 0-5.332-2.388-5.332-5.332s2.388-5.332 5.332-5.332c2.944 0 5.332 2.388 5.332 5.332s-2.388 5.332-5.332 5.332z"></path>
<path  d="M26.524 7.458c0 1.060-0.859 1.919-1.919 1.919s-1.919-0.859-1.919-1.919c0-1.060 0.859-1.919 1.919-1.919s1.919 0.859 1.919 1.919z"></path>
</symbol>
<symbol id="icon-twitter" viewBox="0 0 32 32">
<path  d="M32 6.078c-1.19 0.522-2.458 0.868-3.78 1.036 1.36-0.812 2.398-2.088 2.886-3.626-1.268 0.756-2.668 1.29-4.16 1.588-1.204-1.282-2.92-2.076-4.792-2.076-3.632 0-6.556 2.948-6.556 6.562 0 0.52 0.044 1.020 0.152 1.496-5.454-0.266-10.28-2.88-13.522-6.862-0.566 0.982-0.898 2.106-0.898 3.316 0 2.272 1.17 4.286 2.914 5.452-1.054-0.020-2.088-0.326-2.964-0.808 0 0.020 0 0.046 0 0.072 0 3.188 2.274 5.836 5.256 6.446-0.534 0.146-1.116 0.216-1.72 0.216-0.42 0-0.844-0.024-1.242-0.112 0.85 2.598 3.262 4.508 6.13 4.57-2.232 1.746-5.066 2.798-8.134 2.798-0.538 0-1.054-0.024-1.57-0.090 2.906 1.874 6.35 2.944 10.064 2.944 12.072 0 18.672-10 18.672-18.668 0-0.29-0.010-0.57-0.024-0.848 1.302-0.924 2.396-2.078 3.288-3.406z"></path>
</symbol>
<symbol id="icon-facebook" viewBox="0 0 32 32">
<path  d="M21.329 5.313h2.921v-5.088c-0.504-0.069-2.237-0.225-4.256-0.225-4.212 0-7.097 2.649-7.097 7.519v4.481h-4.648v5.688h4.648v14.312h5.699v-14.311h4.46l0.708-5.688h-5.169v-3.919c0.001-1.644 0.444-2.769 2.735-2.769z"></path>
</symbol>
<symbol id="icon-linkedin" viewBox="0 0 32 32">
<path  d="M31.992 32v-0.001h0.008v-11.736c0-5.741-1.236-10.164-7.948-10.164-3.227 0-5.392 1.771-6.276 3.449h-0.093v-2.913h-6.364v21.364h6.627v-10.579c0-2.785 0.528-5.479 3.977-5.479 3.399 0 3.449 3.179 3.449 5.657v10.401h6.62z"></path>
<path  d="M0.528 10.636h6.635v21.364h-6.635v-21.364z"></path>
<path  d="M3.843 0c-2.121 0-3.843 1.721-3.843 3.843s1.721 3.879 3.843 3.879c2.121 0 3.843-1.757 3.843-3.879-0.001-2.121-1.723-3.843-3.843-3.843v0z"></path>
</symbol>

<symbol id="icon-envelope" viewBox="0 0 43 32">
<path d="M38.667 0h-34.667c-2.206 0-4 1.794-4 4v24c0 2.206 1.794 4 4 4h34.667c2.206 0 4-1.794 4-4v-24c0-2.206-1.794-4-4-4zM38.667 2.667c0.181 0 0.353 0.038 0.511 0.103l-17.844 15.466-17.844-15.466c0.158-0.066 0.33-0.103 0.511-0.103h34.667zM38.667 29.333h-34.667c-0.736 0-1.333-0.598-1.333-1.333v-22.413l17.793 15.421c0.251 0.217 0.563 0.326 0.874 0.326s0.622-0.108 0.874-0.326l17.793-15.421v22.413c0 0.736-0.598 1.333-1.333 1.333z"></path>
</symbol>
<symbol id="icon-smartphone" viewBox="0 0 20 32">
<path d="M17 0h-14c-1.654 0-3 1.346-3 3v26c0 1.654 1.346 3 3 3h14c1.654 0 3-1.346 3-3v-26c0-1.654-1.346-3-3-3zM3 2h14c0.552 0 1 0.448 1 1v21h-16v-21c0-0.552 0.448-1 1-1zM17 30h-14c-0.552 0-1-0.448-1-1v-3h16v3c0 0.552-0.448 1-1 1z"></path>
<path d="M4.707 27.478c0.391 0.365 0.391 0.956 0 1.321s-1.024 0.365-1.414 0c-0.391-0.365-0.391-0.956 0-1.321s1.024-0.365 1.414 0z"></path>
</symbol>
<symbol id="close-icon" viewBox="0 0 32 32">
<path d="M26.667 7.303l-1.97-1.97-7.808 7.808-7.808-7.808-1.97 1.97 7.808 7.808-7.808 7.808 1.97 1.97 7.808-7.808 7.808 7.808 1.97-1.97-7.808-7.808 7.808-7.808z"></path>
</symbol>
<symbol id="icon-email" viewBox="0 0 32 32">
<path d="M26.667 5.333h-21.333c-1.467 0-2.653 1.2-2.653 2.667l-0.013 16c0 1.467 1.2 2.667 2.667 2.667h21.333c1.467 0 2.667-1.2 2.667-2.667v-16c0-1.467-1.2-2.667-2.667-2.667zM26.133 11l-9.427 5.893c-0.427 0.267-0.987 0.267-1.413 0l-9.427-5.893c-0.333-0.213-0.533-0.573-0.533-0.96 0-0.893 0.973-1.427 1.733-0.96l8.933 5.587 8.933-5.587c0.76-0.467 1.733 0.067 1.733 0.96 0 0.387-0.2 0.747-0.533 0.96z"></path>
</symbol>
<symbol id="icon-send" viewBox="0 0 32 32">
<path fill="#fff" style="fill: var(--color1, #fff)" d="M32 0l-32 18 10.227 3.788 15.773-14.788-11.998 16.186 0.010 0.004-0.012-0.004v8.814l5.735-6.691 7.265 2.691 5-28z"></path>
</symbol>
<symbol id="icon-person" viewBox="0 0 32 32">
<path d="M16 16c2.947 0 5.333-2.387 5.333-5.333s-2.387-5.333-5.333-5.333c-2.947 0-5.333 2.387-5.333 5.333s2.387 5.333 5.333 5.333zM16 18.667c-3.56 0-10.667 1.787-10.667 5.333v1.333c0 0.733 0.6 1.333 1.333 1.333h18.667c0.733 0 1.333-0.6 1.333-1.333v-1.333c0-3.547-7.107-5.333-10.667-5.333z"></path>
</symbol>
<symbol id="icon-phone" viewBox="0 0 32 32">
<path d="M24.882 19.773l-3.268-0.373c-0.785-0.090-1.557 0.18-2.11 0.733l-2.367 2.367c-3.641-1.853-6.626-4.825-8.478-8.478l2.38-2.38c0.553-0.553 0.823-1.325 0.733-2.11l-0.373-3.242c-0.154-1.299-1.248-2.277-2.56-2.277h-2.226c-1.454 0-2.663 1.209-2.573 2.663 0.682 10.987 9.469 19.761 20.443 20.443 1.454 0.090 2.663-1.119 2.663-2.573v-2.226c0.013-1.3-0.965-2.393-2.264-2.547z"></path>
</symbol>

<symbol id="icon-youtube" viewBox="0 0 32 32">
<path d="M25.354 4.678h-18.708c-3.67 0-6.646 2.976-6.646 6.646v9.352c0 3.67 2.975 6.646 6.646 6.646h18.708c3.67 0 6.646-2.976 6.646-6.646v-9.352c0-3.67-2.976-6.646-6.646-6.646zM20.859 16.455l-8.75 4.173c-0.233 0.111-0.502-0.059-0.502-0.317v-8.608c0-0.262 0.276-0.432 0.51-0.313l8.75 4.434c0.26 0.132 0.256 0.505-0.008 0.63z"></path>
</symbol>

<symbol id="icon-tiktok" viewBox="0 0 32 32">
<path d="M26.24 2.56h-20.48c-1.764 0-3.2 1.436-3.2 3.2v20.48c0 1.764 1.436 3.2 3.2 3.2h20.48c1.764 0 3.2-1.436 3.2-3.2v-20.48c0-1.764-1.436-3.2-3.2-3.2zM23.684 14.287c-0.145 0.013-0.292 0.022-0.442 0.022-1.679 0-3.154-0.863-4.012-2.168 0 3.423 0 7.318 0 7.384 0 3.014-2.444 5.457-5.457 5.457s-5.457-2.444-5.457-5.457 2.444-5.457 5.457-5.457c0.114 0 0.225 0.010 0.337 0.017v2.689c-0.112-0.013-0.222-0.034-0.337-0.034-1.539 0-2.785 1.247-2.785 2.785s1.247 2.785 2.785 2.785 2.897-1.212 2.897-2.751c0-0.061 0.027-12.54 0.027-12.54h2.57c0.242 2.298 2.097 4.112 4.417 4.278v2.989z"></path>
</symbol>


<symbol id="icon-babyboy" viewBox="0 0 32 32">
<path d="M28.648 14.872c-0.143-0.462-0.312-0.918-0.506-1.365l2.926-4.013c0.122-0.168 0.146-0.387 0.062-0.577s-0.263-0.32-0.469-0.342l-5.97-0.637c-0.159-1.208-1.194-2.144-2.445-2.144-0.151 0-0.298 0.014-0.441 0.040l-2.434-5.488c-0.084-0.19-0.263-0.32-0.469-0.342s-0.408 0.068-0.53 0.235l-3.93 5.393c-4.654 0.547-8.689 3.535-10.572 7.852-0.198 0.455-0.369 0.918-0.514 1.387-1.702 0.508-2.904 2.094-2.904 3.898s1.203 3.392 2.907 3.899c1.668 5.398 6.705 9.332 12.644 9.332s10.976-3.933 12.644-9.332c1.704-0.507 2.907-2.093 2.907-3.899 0-1.804-1.201-3.39-2.903-3.898zM1.61 18.769c0-1.032 0.549-1.963 1.392-2.481-0.154 0.811-0.232 1.64-0.232 2.481 0 0.848 0.081 1.678 0.235 2.482-0.844-0.517-1.394-1.449-1.394-2.482zM24.567 9.091l4.971 0.53-3.764 5.164-2.027-4.57c0.371-0.286 0.659-0.675 0.82-1.124zM22.245 6.954c0.72 0 1.306 0.586 1.306 1.306s-0.586 1.306-1.306 1.306c-0.72 0-1.306-0.586-1.306-1.306s0.586-1.306 1.306-1.306zM18.717 1.734l2.027 4.57c-0.372 0.286-0.66 0.675-0.821 1.124l-4.97-0.529 3.764-5.165zM13.467 6.968l-0.044 0.060c-0.122 0.168-0.146 0.388-0.062 0.577s0.263 0.32 0.469 0.342l5.969 0.636c0.074 0.563 0.338 1.066 0.725 1.444-0.605 0.637-1.784 1.71-3.548 2.598-1.585 0.798-3.317 1.284-5.15 1.444-2.084 0.182-4.306-0.059-6.615-0.716 1.649-3.28 4.696-5.624 8.254-6.385zM16 30.839c-6.655 0-12.070-5.415-12.070-12.070 0-1.503 0.272-2.963 0.806-4.346 1.969 0.574 3.885 0.864 5.72 0.864 0.497 0 0.988-0.021 1.472-0.064 1.979-0.173 3.854-0.699 5.57-1.563 2.1-1.057 3.439-2.353 4.052-3.034 0.22 0.065 0.453 0.1 0.694 0.1 0.151 0 0.298-0.014 0.441-0.040l2.433 5.488c0.084 0.19 0.263 0.32 0.469 0.342 0.021 0.002 0.041 0.003 0.062 0.003 0.184 0 0.359-0.088 0.469-0.238l1.216-1.669c0.488 1.326 0.735 2.72 0.735 4.157-0 6.655-5.415 12.070-12.070 12.070zM28.996 21.251c0.153-0.804 0.235-1.634 0.235-2.482 0-0.841-0.078-1.669-0.231-2.48 0.842 0.517 1.391 1.448 1.391 2.48 0 1.033-0.55 1.965-1.394 2.482z"></path>
<path d="M11.031 18.058c-1.387 0-2.516 1.129-2.516 2.516 0 0.32 0.26 0.58 0.58 0.58s0.58-0.26 0.58-0.58c0-0.747 0.608-1.355 1.355-1.355s1.356 0.608 1.356 1.355c0 0.32 0.26 0.58 0.58 0.58s0.58-0.26 0.58-0.58c0-1.387-1.129-2.516-2.516-2.516z"></path>
<path d="M20.968 18.058c-1.387 0-2.516 1.129-2.516 2.516 0 0.32 0.26 0.58 0.58 0.58s0.58-0.26 0.58-0.58c0-0.747 0.608-1.355 1.356-1.355s1.356 0.608 1.356 1.355c0 0.32 0.26 0.58 0.58 0.58s0.58-0.26 0.58-0.58c-0-1.387-1.129-2.516-2.516-2.516z"></path>
<path d="M19.551 24.48c-0.227-0.227-0.594-0.227-0.821 0-1.475 1.475-3.875 1.475-5.349 0-0.227-0.227-0.594-0.227-0.821 0s-0.227 0.594 0 0.821c0.934 0.934 2.176 1.449 3.495 1.449s2.561-0.515 3.495-1.449c0.227-0.227 0.227-0.594 0-0.821z"></path>
<path d="M16.774 21.414h-1.549c-0.321 0-0.58 0.26-0.58 0.58s0.26 0.58 0.58 0.58h1.549c0.321 0 0.58-0.26 0.58-0.58s-0.26-0.58-0.58-0.58z"></path>
</symbol>


<symbol id="icon-babygirl" viewBox="0 0 32 32">
<path d="M29.009 11.988c-1.716-5.554-6.899-9.601-13.009-9.601s-11.293 4.047-13.009 9.601c-1.753 0.522-2.99 2.154-2.99 4.011s1.238 3.49 2.99 4.011c1.716 5.554 6.899 9.601 13.009 9.601s11.293-4.047 13.009-9.601c1.753-0.521 2.991-2.153 2.991-4.011s-1.238-3.49-2.991-4.012zM2.628 18.553c-0.868-0.532-1.434-1.491-1.434-2.553s0.566-2.022 1.434-2.553c-0.158 0.828-0.241 1.681-0.241 2.554s0.083 1.726 0.241 2.553zM16 28.419c-6.848 0-12.419-5.571-12.419-12.419 0-4.736 2.665-8.86 6.573-10.954 0.594 1.263 2.461 4.425 6.889 6.196 0.073 0.029 0.148 0.043 0.221 0.043 0.237 0 0.461-0.142 0.555-0.376 0.122-0.306-0.026-0.654-0.333-0.776-4.023-1.609-5.735-4.525-6.25-5.601 1.356-0.565 2.833-0.897 4.38-0.944 0.414 0.839 1.602 2.809 4.056 3.925 0.080 0.036 0.164 0.054 0.247 0.054 0.227 0 0.444-0.13 0.544-0.35 0.136-0.3 0.004-0.654-0.297-0.79-1.654-0.752-2.646-1.981-3.161-2.804 6.379 0.514 11.412 5.869 11.412 12.378 0 6.848-5.571 12.419-12.419 12.419zM29.371 18.554c0.158-0.828 0.241-1.681 0.241-2.554s-0.084-1.726-0.241-2.554c0.868 0.531 1.435 1.491 1.435 2.554s-0.566 2.022-1.435 2.554z"></path>
<path d="M10.888 15.268c-1.427 0-2.589 1.161-2.589 2.589 0 0.33 0.267 0.597 0.597 0.597s0.597-0.267 0.597-0.597c0-0.769 0.626-1.395 1.395-1.395s1.395 0.626 1.395 1.395c0 0.33 0.267 0.597 0.597 0.597s0.597-0.267 0.597-0.597c0-1.427-1.161-2.589-2.589-2.589z"></path>
<path d="M21.112 15.268c-1.427 0-2.589 1.161-2.589 2.589 0 0.33 0.267 0.597 0.597 0.597s0.597-0.267 0.597-0.597c0-0.769 0.626-1.395 1.395-1.395s1.395 0.626 1.395 1.395c0 0.33 0.267 0.597 0.597 0.597s0.597-0.267 0.597-0.597c0-1.427-1.161-2.589-2.589-2.589z"></path>
<path d="M19.654 21.875c-0.233-0.233-0.611-0.233-0.844 0-1.517 1.517-3.986 1.517-5.504 0-0.233-0.233-0.611-0.233-0.844 0s-0.233 0.611 0 0.844c0.961 0.961 2.239 1.491 3.596 1.491s2.635-0.529 3.596-1.491c0.233-0.233 0.233-0.611-0-0.844z"></path>
<path d="M16.796 18.721h-1.593c-0.33 0-0.597 0.267-0.597 0.597s0.267 0.597 0.597 0.597h1.593c0.33 0 0.597-0.267 0.597-0.597s-0.267-0.597-0.597-0.597z"></path>
</symbol>


<symbol id="icon-man" viewBox="0 0 32 32">
<path d="M26.959 9.205c-0.458-1.468-1.42-2.261-1.904-2.58 0.004-0.066 0.010-0.13 0.010-0.195 0.31-5.612-2.947-6.387-3.086-6.417-0.154-0.035-0.315 0.003-0.439 0.099-0.125 0.096-0.201 0.243-0.207 0.4-0.004 0.11-0.153 2.689-3.734 2.689h-7.467c-1.764 0-3.2 1.435-3.2 3.2 0 0.075 0.006 0.149 0.012 0.224-0.484 0.319-1.446 1.112-1.905 2.581-0.596 1.912-0.132 4.248 1.369 6.943-0.012 0.323-0.023 0.645-0.023 0.979 0 3.643 0.358 7.353 2.953 9.817 0.418 0.397 0.868 0.751 1.328 1.084v3.438c0 0.294 0.239 0.533 0.533 0.533s0.533-0.239 0.533-0.533v-2.701c0.055 0.037 0.11 0.075 0.165 0.111l0.513 0.345c0.202 0.137 0.399 0.283 0.596 0.428 0.854 0.632 1.737 1.285 2.979 1.285s2.125-0.653 2.979-1.284c0.197-0.146 0.394-0.291 0.596-0.428l0.512-0.344c0.018-0.012 0.037-0.025 0.054-0.037 0.047-0.031 0.093-0.062 0.14-0.093v2.72c0 0.294 0.239 0.533 0.533 0.533s0.533-0.239 0.533-0.533v-3.459c0.45-0.328 0.89-0.675 1.299-1.064 2.595-2.464 2.953-6.174 2.953-9.817 0-0.316-0.012-0.621-0.022-0.926 1.524-2.717 1.996-5.070 1.396-6.996zM21.898 26.17c-0.475 0.451-1.012 0.852-1.559 1.234-0.283 0.198-0.569 0.392-0.855 0.583l-0.521 0.35c-0.214 0.146-0.423 0.3-0.632 0.454-0.748 0.553-1.454 1.075-2.345 1.075s-1.597-0.523-2.345-1.075c-0.209-0.154-0.418-0.309-0.632-0.454l-0.505-0.339c-0.297-0.199-0.594-0.399-0.886-0.604-0.542-0.379-1.074-0.777-1.545-1.224-2.418-2.295-2.621-5.871-2.621-9.043 0-3.167 0.54-5.76 1.605-7.717 0.17 0.061 0.346 0.108 0.527 0.14 0.005 0.001 0.011 0.002 0.017 0.003 0.174 0.029 0.351 0.048 0.532 0.048h11.733c0.177 0 0.349-0.019 0.518-0.046 0.006-0.001 0.013-0.002 0.019-0.003 0.178-0.030 0.349-0.074 0.515-0.132 1.062 1.957 1.6 4.546 1.6 7.708 0 3.172-0.203 6.748-2.621 9.043z"></path>
</symbol>


<symbol id="icon-woman" viewBox="0 0 32 32">
<path d="M26.113 19.003c-0.523-0.743-0.693-1.659-0.459-2.542 0.096-0.358 0.337-0.685 0.677-0.922 3.517-2.441 3.126-7.642 3.080-8.138-0.005-2.305-0.673-4.132-1.986-5.43-2.001-1.978-4.751-1.964-4.871-1.971-3.531 0-4.67 2.342-5.005 3.401-2.082-1.158-3.983-1.122-4.211-1.113l-0.978 0.001c-0.132-0.008-3.302-0.152-6.032 2.431-2.505 2.37-3.774 6.186-3.774 11.344 0 0.167 0.002 0.335 0.003 0.502 0 0.001-0.001 0.002-0.001 0.003 0 0.025 0.001 0.049 0.001 0.073 0.001 0.113 0.003 0.226 0.006 0.339 0.002 0.146 0.006 0.291 0.010 0.438 0.002 0.069 0.004 0.138 0.006 0.206 0.006 0.185 0.015 0.37 0.024 0.555 0.002 0.045 0.005 0.089 0.007 0.133 0.011 0.198 0.025 0.396 0.041 0.594 0.003 0.040 0.006 0.080 0.010 0.12 0.016 0.191 0.035 0.382 0.057 0.573 0.005 0.050 0.010 0.1 0.016 0.15 0.020 0.17 0.043 0.339 0.067 0.508 0.010 0.071 0.019 0.143 0.031 0.214 0.022 0.138 0.046 0.275 0.071 0.413 0.018 0.1 0.035 0.199 0.055 0.298 0.021 0.101 0.044 0.201 0.066 0.301 0.029 0.132 0.057 0.263 0.090 0.394 0.015 0.061 0.034 0.121 0.050 0.181 0.043 0.165 0.089 0.33 0.139 0.492 0.007 0.021 0.014 0.042 0.021 0.062 0.402 1.274 1.005 2.453 1.907 3.466 0.153 0.172 0.315 0.34 0.486 0.502 0.448 0.425 0.93 0.805 1.423 1.162v3.683c0 0.315 0.255 0.571 0.571 0.571s0.571-0.256 0.571-0.571v-2.894c0.065 0.043 0.129 0.087 0.194 0.13l0.531 0.357c0.217 0.146 0.427 0.303 0.638 0.458 0.915 0.677 1.861 1.377 3.192 1.377s2.278-0.7 3.193-1.377c0.211-0.155 0.422-0.312 0.638-0.458l0.553-0.371c0.069-0.046 0.136-0.091 0.204-0.137v2.914c0 0.315 0.255 0.571 0.571 0.571s0.571-0.256 0.571-0.571v-3.706c0.482-0.351 0.953-0.723 1.391-1.14 0.167-0.159 0.326-0.323 0.475-0.491 0.057-0.063 0.108-0.13 0.162-0.195 0.090-0.106 0.18-0.213 0.263-0.322 0.058-0.077 0.111-0.156 0.167-0.234 0.051-0.073 0.106-0.144 0.154-0.218 0.113 0.639 0.218 1.311 0.316 2.035 0.505 3.741 2.86 4.631 4.219 4.829 0.037 0.005 0.073 0.007 0.109 0.007 0.306 0 0.586-0.185 0.706-0.477 0.133-0.322 0.031-0.69-0.246-0.895-0.263-0.193-0.346-0.566-0.248-1.109 0.101-0.553 0.382-1.115 0.814-1.623 1.513-1.78 1.465-3.023 1.414-3.369-0.020-2.049-1.18-4.129-2.156-5.518zM21.937 18.090c-0.009 0.197-0.021 0.393-0.035 0.589-0.005 0.071-0.010 0.142-0.015 0.214-0.021 0.253-0.047 0.505-0.076 0.757-0.007 0.057-0.013 0.113-0.020 0.171-0.033 0.256-0.071 0.51-0.115 0.762-0.009 0.056-0.020 0.111-0.030 0.167-0.047 0.258-0.1 0.513-0.162 0.764-0.009 0.037-0.020 0.073-0.029 0.11-0.056 0.218-0.118 0.431-0.186 0.643-0.022 0.067-0.042 0.134-0.065 0.201-0.077 0.225-0.161 0.445-0.253 0.662-0.123 0.293-0.261 0.579-0.417 0.858-0.006 0.012-0.013 0.024-0.020 0.036-0.075 0.133-0.155 0.263-0.239 0.393-0.031 0.047-0.062 0.094-0.094 0.142-0.070 0.104-0.143 0.207-0.219 0.308-0.059 0.079-0.123 0.155-0.186 0.232-0.059 0.073-0.117 0.146-0.18 0.217-0.134 0.15-0.273 0.297-0.422 0.438-0.511 0.486-1.090 0.918-1.68 1.329-0.307 0.214-0.617 0.425-0.928 0.632l-0.538 0.361c-0.229 0.155-0.453 0.321-0.676 0.486-0.801 0.593-1.559 1.153-2.513 1.153s-1.711-0.56-2.513-1.153c-0.223-0.165-0.447-0.33-0.676-0.486l-0.277-0.186-0.261-0.175c-0.306-0.205-0.611-0.413-0.915-0.623-0.594-0.414-1.177-0.849-1.693-1.338-0.157-0.149-0.303-0.302-0.443-0.461-0.043-0.049-0.081-0.101-0.123-0.15-0.093-0.111-0.185-0.223-0.271-0.338-0.046-0.062-0.087-0.126-0.131-0.189-0.074-0.107-0.149-0.214-0.217-0.325-0.044-0.070-0.084-0.143-0.126-0.215-0.061-0.105-0.121-0.21-0.177-0.318-0.042-0.081-0.082-0.163-0.121-0.245-0.049-0.1-0.095-0.201-0.14-0.302-0.041-0.093-0.079-0.188-0.117-0.283-0.037-0.090-0.071-0.181-0.105-0.273-0.039-0.11-0.077-0.22-0.114-0.331-0.025-0.076-0.048-0.152-0.071-0.229-0.038-0.13-0.077-0.26-0.11-0.392-0.015-0.054-0.028-0.109-0.042-0.164-0.038-0.155-0.075-0.312-0.108-0.47-0.005-0.023-0.009-0.046-0.014-0.070-0.279-1.381-0.36-2.851-0.377-4.312 0.323-0.686 2.219-4.462 4.9-4.678 0.867 0.91 4.539 4.562 7.667 4.562 0.017 0 0.034-0.001 0.051-0.002 0.037-0.003 3.683-0.306 5.626 1.363-0.002 0.052-0.006 0.106-0.009 0.158z"></path>
</symbol>
</defs>
</svg>
